# xmcd
#
# Track frame offsets:
#	150
#	13149
#	29885
#	36468
#	52772
#	63659
#	75253
#	83612
#	94534
#	104142
#	113336
#	129604
#	139107
#	156098
#	166289
#	176367
#	186633
#	194867
#
# Disc length: 2710 seconds
#
# Revision: 2
# Processed by: cddbd v1.4PL0 Copyright (c) Steve Scherf et al.
# Submitted via: EasyCDDAExtractor 6.2.0.3
#
DISCID=f70a9412
DTITLE=Tom Ball  - 18 Pieces for Solo Steel String Guitar
DYEAR=2003
DGENRE=Blues
TTITLE0=One November Day 
TTITLE1=Old Irish Air
TTITLE2=Ponce Preludio #8
TTITLE3=Julia Florida
TTITLE4=Glory of Love/Swingin' on a Star
TTITLE5=Pau de Chuva (The Rain Stick) 
TTITLE6=Police Dog Blues 
TTITLE7=Suayo
TTITLE8=L'Hymne a L'Amour
TTITLE9=Variations on Themes by Bittner
TTITLE10=Maria Elena
TTITLE11=I'll See You in My Dreams
TTITLE12=Berceuse: Cancion de Cuna 
TTITLE13=Ojos Brujos (The Sorcerer's Eyes)
TTITLE14=Barcarolle #1 
TTITLE15=Variations on Variations on Milan
TTITLE16=Face to Face 
TTITLE17=(Theme from) Tristesse (Sadness) 
EXTD=
EXTT0=
EXTT1=
EXTT2=
EXTT3=
EXTT4=
EXTT5=
EXTT6=
EXTT7=
EXTT8=
EXTT9=
EXTT10=
EXTT11=
EXTT12=
EXTT13=
EXTT14=
EXTT15=
EXTT16=
EXTT17=
PLAYORDER=
